# xmcd
#
# Track frame offsets: 
#        150
#        58276
#        113100
#        131363
#        161987
#        211923
#        268874
#        295966
#        314182
#
# Disc length: 4767 seconds
#
# Revision: 0
# Processed by: cddbd v1.5.2PL0 Copyright (c) Steve Scherf et al.
# Submitted via: ExactAudioCopy v1.0b1
#
DISCID=95129d09
DTITLE=Eugen Jochum - The Complete Beethoven Symphonies 2&6 CD2
DYEAR=2012
DGENRE=Classical
TTITLE0=Sym No.2 in D, Op.36: 1. Adagio - Allegro Con Brio
TTITLE1=Sym No.2 in D, Op.36: 2. Larghetto
TTITLE2=Sym No.2 in D, Op.36: 3. Scherzo. Allegro - Trio
TTITLE3=Sym No.2 in D, Op.36: 4. Allegro Molto"
TTITLE4=Sym No.6 in F, Op.68 'Pastorale': 1. Pleasant, Cheerful Feelin
TTITLE4=gs Awakened
TTITLE5=Sym No.6 in F, Op.68 'Pastorale': 2. Scene By The Brook: Andan
TTITLE5=te Molto Moto
TTITLE6=Sym No.6 in F, Op.68 'Pastorale': 3. Merry Gathering Of Countr
TTITLE6=y Folk: Allegro
TTITLE7=Sym No.6 in F, Op.68 'Pastorale': 4. Thunderstorm: Allegro
TTITLE8=Sym No.6 in F, Op.68 'Pastorale': 5. Shepherd's Song: Happy An
TTITLE8=d Thankful Feelings
EXTD=
EXTT0=
EXTT1=
EXTT2=
EXTT3=
EXTT4=
EXTT5=
EXTT6=
EXTT7=
EXTT8=
PLAYORDER=
